<svg width="220" height="220" viewBox="0 0 220 220" fill="none" xmlns="http://www.w3.org/2000/svg">
  <defs>
    <linearGradient id="gradVN" x1="0" y1="0" x2="220" y2="220" gradientUnits="userSpaceOnUse">
      <stop stop-color="#F59E0B"/>
      <stop offset="1" stop-color="#EA580C"/>
    </linearGradient>
    <filter id="shadow" x="-20%" y="-20%" width="140%" height="140%">
      <feDropShadow dx="0" dy="10" stdDeviation="10" flood-color="#EA580C" flood-opacity="0.25"/>
    </filter>
  </defs>

  <circle cx="110" cy="110" r="92" fill="url(#gradVN)" filter="url(#shadow)"/>
  <circle cx="110" cy="110" r="78" fill="rgba(255,255,255,0.08)"/>

  <path d="M110 55L119 84H150L125 102L134 132L110 114L86 132L95 102L70 84H101L110 55Z" fill="#FFD166"/>

  <path d="M72 145C88 132 102 127 110 127C118 127 132 132 148 145" stroke="white" stroke-width="10" stroke-linecap="round"/>
  <path d="M82 160C95 151 104 148 110 148C116 148 125 151 138 160" stroke="white" stroke-width="8" stroke-linecap="round"/>

  <circle cx="72" cy="88" r="6" fill="#fff" opacity="0.8"/>
  <circle cx="148" cy="88" r="6" fill="#fff" opacity="0.8"/>
</svg>
